# xmcd CD database file
#
# Track frame offsets:
#	150
#	12102
#	24537
#	37307
#	50005
#	63285
#	76217
#	87245
#	99732
#	112702
#	123682
#	135277
#	146117
#	158340
#	171672
#	179860
#
# Disc length: 2573 seconds
#
# Revision: 0
# Processed by: cddbd v1.5.1PL0 Copyright (c) Steve Scherf et al.
# Submitted via: CDex 1.50
#
DISCID=da0a0b10
DTITLE=Clint Eastwood - Country Favorites
DYEAR=2002
DGENRE=Country
TTITLE0=Bouquet Of Roses
TTITLE1=Santa Fe Trail
TTITLE2=The Round-Up
TTITLE3=Sierra Nevada
TTITLE4=Mexicali Rose
TTITLE5=Searching For Someone To Love
TTITLE6=I'll Love You More
TTITLE7=Tumbling Tumbleweeds
TTITLE8=Twilight On The Trail
TTITLE9=San Antonio Rose
TTITLE10=Don't Fence Me In
TTITLE11=Are You Satisfied
TTITLE12=For A Few Dollars More (bonus track)
TTITLE13=The Good, The Bad And The Ugly (bonus track)
TTITLE14=A Fistful Of Dollars (bonus track)
TTITLE15=The Man With The Harmonica (bonus track)
EXTD=YEAR: 2002
EXTT0=
EXTT1=
EXTT2=
EXTT3=
EXTT4=
EXTT5=
EXTT6=
EXTT7=
EXTT8=
EXTT9=
EXTT10=
EXTT11=
EXTT12=
EXTT13=
EXTT14=
EXTT15=
PLAYORDER=
